<svg viewBox="0 0 24 24" xmlns="http://www.w3.org/2000/svg"><path d="M24 10.304c0-5.369-5.383-9.738-12-9.738-6.616 0-12 4.369-12 9.738 0 4.814 4.269 8.846 10.036 9.608.391.084.922.258 1.057.592.122.296.08 .755.039 1.05l-.173 1.037c-.052.316-.24.965.845.508 1.085-.458 5.843-3.443 8.356-6.177 1.258-1.371 1.84-2.83 1.84-4.286z" fill="#00C300"/><path d="M10.803 12.873h-2.138v-4.148c0-.236-.192-.428-.428-.428s-.428.192-.428.428v4.576c0 .236.192.428.428.428h2.566c.236 0 .428-.192.428-.428s-.192-.428-.428-.428zm3.011-4.148h-.856c-.236 0-.428.192-.428.428v4.576c0 .236.192.428.428.428h.856c.236 0 .428-.192.428-.428v-4.576c0-.236-.192-.428-.428-.428zm-4.757 0h-.856c-.236 0-.428.192-.428.428v4.576c0 .236.192.428.428.428h.856c.236 0 .428-.192.428-.428v-4.576c0-.236-.192-.428-.428-.428zm6.549 0h-.856c-.236 0-.428.192-.428.428v2.617l-1.954-2.868c-.046-.076-.118-.135-.205-.164s-.184-.029-.266.012c-.082.041-.148.106-.184.188s-.031.176.015.253l2.062 3.023c.066.096.174.154.292.154h.861c.236 0 .428-.192.428-.428v-4.576c0-.236-.192-.428-.428-.428z" fill="#FFFFFF"/></svg>
